<?xml version="1.0" encoding="UTF-8" standalone="no"?>
<svg width="5078px" height="1042px" viewBox="0 0 5078 1042" version="1.1" xmlns="http://www.w3.org/2000/svg" xmlns:xlink="http://www.w3.org/1999/xlink" xmlns:sketch="http://www.bohemiancoding.com/sketch/ns">
    <!-- Generator: Sketch 3.4.2 (15855) - http://www.bohemiancoding.com/sketch -->
    <title>Group</title>
    <desc>Created with Sketch.</desc>
    <defs></defs>
    <g id="Page-1" stroke="none" stroke-width="1" fill="none" fill-rule="evenodd" sketch:type="MSPage">
        <g id="Group" sketch:type="MSLayerGroup" transform="translate(-1.537400, -2.447834)" fill="#1B6394">
            <g id="main_text" transform="translate(1339.000000, 0.559781)" sketch:type="MSShapeGroup">
                <path d="M221.09593,5.52336514 C332.191162,5.52336514 424.132043,99.6515877 424.132043,215.894272 C424.132043,331.002882 332.191162,425.131104 221.09593,425.131104 C109.453431,425.131104 18.6070832,331.002882 18.6070832,215.894272 C18.6070832,99.6515877 109.453431,5.52336514 221.09593,5.52336514 L221.09593,5.52336514 Z M221.09593,327.600657 C280.748049,327.600657 328.360292,277.134321 328.360292,215.894272 C328.360292,154.087186 280.748049,102.486775 221.09593,102.486775 C161.44381,102.486775 113.284301,154.087186 113.284301,215.894272 C113.284301,277.134321 161.44381,327.600657 221.09593,327.600657 L221.09593,327.600657 Z M621.148218,423.429992 C608.013807,423.429992 593.784861,421.728879 581.744983,418.893692 C542.341748,410.38813 506.222116,391.675893 459.704408,350.282156 L522.092864,276.000246 C556.570694,307.187307 576.819579,319.095095 600.899334,323.631395 C608.013807,325.332507 615.12828,326.466582 621.695486,326.466582 C632.640829,326.466582 642.491637,324.198432 650.153378,320.22917 C656.720583,316.826945 668.213194,309.455457 668.213194,294.145445 C668.213194,278.268396 639.755302,268.628758 615.12828,263.525421 C604.182937,261.257271 550.550756,249.349484 528.66007,235.740584 C491.445903,213.059085 472.291553,178.469798 472.291553,135.374949 C472.291553,111.559375 479.953293,88.8778755 492.540438,69.598601 C505.127582,51.4534015 522.640131,37.2774643 542.889016,27.6378271 L542.341748,28.2048646 C563.1379,17.9981898 586.670388,12.8948524 609.108341,12.8948524 C618.411883,12.8948524 627.168157,13.4618899 638.1135,15.1630024 C673.138598,21.4004147 705.42736,36.1433894 750.303266,74.7019384 L690.10388,149.550886 C649.60611,114.9616 628.809959,109.858262 608.013807,109.858262 C597.615731,109.858262 589.406724,112.126412 582.839518,115.528637 C572.441442,120.064937 566.96877,128.003462 566.96877,135.374949 C566.96877,150.684961 586.670388,158.056449 618.411883,164.860899 C621.695486,165.994974 625.526356,165.994974 629.357226,167.129049 C650.700645,172.232386 682.44214,179.036836 703.238291,191.51166 L702.691024,191.51166 C742.094259,214.19316 762.890411,249.916521 762.890411,294.145445 C762.890411,320.22917 756.323205,344.611781 742.094259,365.025131 C729.507115,383.737368 710.900031,397.346268 690.10388,408.11998 C668.213194,420.027767 645.77524,423.429992 621.148218,423.429992 L621.148218,423.429992 Z M1007.51883,328.167694 C1041.44939,328.167694 1071.54909,313.42472 1102.19605,271.463946 L1177.17165,328.734732 C1128.46487,396.212193 1071.00182,425.698142 1007.51883,425.698142 C895.876329,425.698142 804.482715,331.002882 804.482715,215.327235 C804.482715,99.6515877 895.876329,5.52336514 1007.51883,5.52336514 C1072.09635,5.52336514 1130.65394,36.7104268 1179.36071,104.187888 L1103.29058,162.025711 C1072.64362,119.4979 1041.44939,102.486775 1007.51883,102.486775 C946.772174,102.486775 898.612665,152.953111 898.612665,215.327235 C898.612665,278.268396 946.772174,328.167694 1007.51883,328.167694 L1007.51883,328.167694 Z" id="Shape"></path>
            </g>
            <g id="slogan_text" transform="translate(1339.000000, 625.823107)" sketch:type="MSShapeGroup">
                <path d="M169.044743,10.0806664 C212.285604,10.0806664 247.959315,24.7816383 276.065875,54.1835819 C304.172435,83.5855256 318.49597,120.967997 319.036481,166.330996 C318.766226,212.53405 304.307562,250.056531 275.660492,278.898437 C247.013421,307.740344 211.474838,322.301307 169.044743,322.581325 C125.803881,322.581325 90.1301706,307.810349 62.0236106,278.268396 C33.9170507,248.726443 19.5935153,211.413976 19.0530046,166.330996 C19.0530046,121.528034 33.1062846,84.4255812 61.2128445,55.0236375 C89.3194044,25.6216938 125.263371,10.6407034 169.044743,10.0806664 L169.044743,10.0806664 Z M55.5374814,166.330996 C55.5374814,201.893347 66.3476968,231.225286 87.9681275,254.326813 C109.588558,277.42834 136.614097,289.259122 169.044743,289.819159 C201.475389,289.819159 228.3658,278.058382 249.715975,254.536827 C271.06615,231.015272 282.011493,201.613328 282.552004,166.330996 C282.552004,131.888719 272.012044,102.836798 250.932124,79.1752341 C229.852204,55.5136699 202.421283,43.4028693 168.63936,42.8428322 C135.668203,43.1228507 108.710228,55.0936421 87.765436,78.7552063 C66.8206437,102.416771 56.0779922,131.6087 55.5374814,166.330996 L55.5374814,166.330996 Z M467.001304,113.407497 C496.999651,113.407497 521.052381,123.208145 539.159491,142.809441 C557.266602,162.410737 566.455285,187.052366 566.72554,216.734328 C566.72554,246.136271 557.536857,270.567887 539.159491,290.029173 C520.782125,309.49046 498.350928,319.501121 471.865901,320.061158 C455.650578,320.061158 440.989223,316.420918 427.881837,309.140437 C414.774451,301.859955 405.112821,292.199317 398.896947,280.158521 L398.086181,280.158521 L398.086181,410.787156 L366.466301,410.787156 L366.466301,118.44783 L398.086181,118.44783 L398.086181,147.009718 L398.896947,147.009718 C417.544568,124.608238 440.246021,113.407497 467.001304,113.407497 L467.001304,113.407497 Z M398.086181,216.734328 C398.086181,238.295753 404.369618,255.726905 416.936494,269.027785 C429.503369,282.328664 445.651128,289.259122 465.379771,289.819159 C485.108414,289.819159 501.18861,283.02871 513.620357,269.447813 C526.052105,255.866915 532.403107,238.295753 532.673362,216.734328 C532.673362,195.452921 526.389924,177.951764 513.823049,164.230857 C501.256174,150.50995 484.973287,143.649496 464.974388,143.649496 C445.516001,143.649496 429.570933,150.439945 417.139185,164.020843 C404.707438,177.601741 398.356436,195.172902 398.086181,216.734328 L398.086181,216.734328 Z M702.123488,113.407497 C730.230048,113.407497 752.188298,122.578103 767.998238,140.919316 C783.808178,159.260528 791.848275,185.232245 792.118531,218.834467 L792.118531,226.814994 L638.883728,226.814994 C640.50526,245.016197 647.126517,259.997188 658.747499,271.757965 C670.36848,283.518743 684.556888,289.539141 701.312722,289.819159 C726.986983,289.819159 746.985882,279.878502 761.309417,259.997188 L785.227018,279.318465 C775.227569,292.759354 763.47146,302.910025 749.958691,309.770478 C736.445922,316.630932 720.230599,320.061158 701.312722,320.061158 C672.395396,320.061158 649.153433,310.330515 631.586833,290.869229 C614.020233,271.407942 605.101805,246.696309 604.83155,216.734328 C604.83155,187.052366 613.817541,162.550746 631.789524,143.229469 C649.761507,123.908191 673.206162,113.967534 702.123488,113.407497 L702.123488,113.407497 Z M758.066352,199.093162 C757.255586,182.012032 751.918042,168.501139 742.053721,158.560482 C732.189399,148.619825 718.338811,143.649496 700.501956,143.649496 C684.286633,143.649496 670.638736,148.409811 659.558265,157.93044 C648.477794,167.45107 641.586282,181.171977 638.883728,199.093162 L758.066352,199.093162 L758.066352,199.093162 Z M934.40799,113.407497 C958.190464,113.407497 976.162447,120.547969 988.32394,134.828913 C1000.48543,149.109857 1006.56618,168.151116 1006.56618,191.95269 L1006.56618,315.020825 L974.946298,315.020825 L974.946298,195.732939 C974.946298,180.61194 971.568106,168.221121 964.811721,158.560482 C958.055337,148.899843 946.974866,143.929515 931.570309,143.649496 C912.111921,143.649496 897.450567,150.299936 887.586245,163.600815 C877.721924,176.901695 872.789763,195.312912 872.789763,218.834467 L872.789763,315.020825 L841.169883,315.020825 L841.169883,162.130718 C841.169883,160.730626 840.629372,146.169663 839.548351,118.44783 L869.546698,118.44783 C870.087209,138.049126 870.357464,148.829839 870.357464,150.789968 L871.168231,150.789968 C876.303083,139.589228 884.613436,130.558631 896.09929,123.698177 C907.585144,116.837724 920.354711,113.407497 934.40799,113.407497 L934.40799,113.407497 Z M1268.84903,10.0806664 C1303.71197,10.0806664 1330.46726,21.7014346 1349.11488,44.9429711 L1321.14345,70.1446371 C1310.33323,52.5034709 1292.90176,43.4028693 1268.84903,42.8428322 C1250.74192,42.8428322 1236.013,47.3231284 1224.66227,56.2837208 C1213.31155,65.2443131 1207.63618,77.4251184 1207.63618,92.8261365 C1207.63618,106.267025 1211.96027,116.907728 1220.60844,124.748247 C1229.25661,132.588765 1245.47194,140.289274 1269.25441,147.849774 C1300.06353,157.090385 1321.88665,168.36113 1334.72378,181.662009 C1347.56091,194.962889 1353.97947,212.954078 1353.97947,235.635577 C1353.97947,261.957317 1344.52054,282.958706 1325.60266,298.639742 C1306.68478,314.320779 1282.49693,322.301307 1253.03909,322.581325 C1233.31045,322.581325 1215.74385,318.941084 1200.33929,311.660603 C1184.93473,304.380122 1173.04349,294.299455 1164.66558,281.418604 L1193.85316,256.636966 C1200.06903,267.277669 1208.71721,275.468211 1219.79768,281.20859 C1230.87815,286.94897 1242.63426,289.819159 1255.066,289.819159 C1272.09209,289.819159 1286.75345,284.848831 1299.05007,274.908174 C1311.34669,264.967516 1317.495,252.716707 1317.495,238.155744 C1317.495,224.994874 1313.91411,214.634189 1306.75235,207.073689 C1299.59058,199.513189 1287.76691,193.072764 1271.28133,187.752412 L1238.4453,176.411662 C1213.85206,167.731088 1196.48815,156.880371 1186.35357,143.85951 C1176.219,130.838649 1171.15171,114.80759 1171.15171,95.7663309 C1171.15171,70.5646649 1180.20526,50.0533089 1198.31237,34.232263 C1216.41948,18.4112171 1239.9317,10.3606849 1268.84903,10.0806664 L1268.84903,10.0806664 Z M1495.05278,113.407497 C1524.51062,113.407497 1548.56335,122.858122 1567.21097,141.759371 C1585.85859,160.660621 1595.58779,185.652273 1596.39855,216.734328 C1596.39855,246.696309 1586.93962,271.267933 1568.02174,290.449201 C1549.10386,309.630469 1524.78088,319.501121 1495.05278,320.061158 C1465.32469,320.061158 1441.13684,310.330515 1422.48921,290.869229 C1403.84159,271.407942 1394.24753,246.696309 1393.70702,216.734328 C1393.70702,186.492329 1403.16595,161.780695 1422.08383,142.599427 C1441.00171,123.418159 1465.32469,113.687516 1495.05278,113.407497 L1495.05278,113.407497 Z M1427.75919,216.734328 C1427.75919,238.295753 1434.04263,255.726905 1446.60951,269.027785 C1459.17638,282.328664 1475.32414,289.259122 1495.05278,289.819159 C1514.78143,289.819159 1530.86162,283.02871 1543.29337,269.447813 C1555.72512,255.866915 1562.07612,238.295753 1562.34638,216.734328 C1562.34638,195.452921 1556.06294,177.951764 1543.49606,164.230857 C1530.92919,150.50995 1514.6463,143.649496 1494.6474,143.649496 C1475.18901,143.649496 1459.24395,150.439945 1446.8122,164.020843 C1434.38045,177.601741 1428.02945,195.172902 1427.75919,216.734328 L1427.75919,216.734328 Z M1677.06979,118.44783 L1677.06979,237.735716 C1677.06979,252.856716 1680.51554,265.247535 1687.40705,274.908174 C1694.29857,284.568812 1705.31147,289.539141 1720.44578,289.819159 C1739.90416,289.819159 1754.56552,283.098715 1764.42984,269.657826 C1774.29416,256.216938 1779.22632,238.295753 1779.22632,215.894272 L1779.22632,118.44783 L1810.8462,118.44783 L1810.8462,271.337938 C1811.11646,279.178456 1811.65697,293.739418 1812.46773,315.020825 L1782.46939,315.020825 C1782.19913,301.579937 1781.92887,290.799224 1781.65862,282.678687 L1780.84785,282.678687 C1775.98326,293.599409 1767.80803,302.560002 1756.32218,309.560464 C1744.83632,316.560927 1731.7965,320.061158 1717.20271,320.061158 C1693.96075,319.78114 1676.19146,312.570663 1663.89484,298.429728 C1651.59822,284.288794 1645.44991,265.31754 1645.44991,241.515966 L1645.44991,118.44783 L1677.06979,118.44783 L1677.06979,118.44783 Z M1964.081,113.407497 C1968.9456,113.407497 1973.26969,114.107543 1977.05326,115.507636 L1975.02635,148.68983 C1969.08073,147.009718 1963.40537,146.169663 1958.00026,146.169663 C1939.62289,146.169663 1925.7723,152.400075 1916.44849,164.860899 C1907.12468,177.321722 1902.46278,194.892884 1902.46278,217.574383 L1902.46278,315.020825 L1870.8429,315.020825 L1870.8429,162.130718 C1870.8429,158.210459 1870.30239,143.649496 1869.22136,118.44783 L1899.21971,118.44783 C1899.76022,138.049126 1900.03048,148.829839 1900.03048,150.789968 L1900.84124,150.789968 C1905.9761,139.589228 1914.28645,130.558631 1925.7723,123.698177 C1937.25816,116.837724 1950.02772,113.407497 1964.081,113.407497 L1964.081,113.407497 Z M2101.10048,113.407497 C2131.09883,113.407497 2155.28669,123.768182 2173.66405,144.489552 L2148.5303,167.591079 C2135.8283,151.630024 2119.88323,143.649496 2100.6951,143.649496 C2080.96646,143.649496 2065.35921,150.299936 2053.87336,163.600815 C2042.3875,176.901695 2036.64457,194.612865 2036.64457,216.734328 C2036.64457,237.735716 2042.79288,255.096864 2055.0895,268.817771 C2067.38612,282.538678 2082.58799,289.539141 2100.6951,289.819159 C2121.50477,289.819159 2137.58496,281.698622 2148.93569,265.457549 L2172.4479,288.559076 C2154.88131,309.280446 2130.9637,319.78114 2100.6951,320.061158 C2071.77777,319.78114 2048.33312,310.260511 2030.36114,291.49927 C2012.38915,272.73803 2003.13291,247.816383 2002.5924,216.734328 C2002.86265,185.372255 2012.32159,160.310598 2030.96921,141.549357 C2049.61683,122.788117 2072.99392,113.407497 2101.10048,113.407497 L2101.10048,113.407497 Z M2295.27898,113.407497 C2323.38554,113.407497 2345.34379,122.578103 2361.15373,140.919316 C2376.96367,159.260528 2385.00376,185.232245 2385.27402,218.834467 L2385.27402,226.814994 L2232.03922,226.814994 C2233.66075,245.016197 2240.28201,259.997188 2251.90299,271.757965 C2263.52397,283.518743 2277.71238,289.539141 2294.46821,289.819159 C2320.14247,289.819159 2340.14137,279.878502 2354.46491,259.997188 L2378.38251,279.318465 C2368.38306,292.759354 2356.62695,302.910025 2343.11418,309.770478 C2329.60141,316.630932 2313.38609,320.061158 2294.46821,320.061158 C2265.55088,320.061158 2242.30892,310.330515 2224.74232,290.869229 C2207.17572,271.407942 2198.25729,246.696309 2197.98704,216.734328 C2197.98704,187.052366 2206.97303,162.550746 2224.94501,143.229469 C2242.917,123.908191 2266.36165,113.967534 2295.27898,113.407497 L2295.27898,113.407497 Z M2351.22184,199.093162 C2350.41108,182.012032 2345.07353,168.501139 2335.20921,158.560482 C2325.34489,148.619825 2311.4943,143.649496 2293.65744,143.649496 C2277.44212,143.649496 2263.79422,148.409811 2252.71375,157.93044 C2241.63328,167.45107 2234.74177,181.171977 2232.03922,199.093162 L2351.22184,199.093162 L2351.22184,199.093162 Z M2682.01443,10.0806664 C2704.44563,10.0806664 2724.3094,14.2109395 2741.60574,22.4714855 C2758.90209,30.7320316 2772.82024,42.142786 2783.3602,56.7037485 L2753.76724,78.9652202 C2745.11906,66.9244242 2734.44398,57.8938272 2721.74197,51.8734292 C2709.03997,45.8530312 2695.79746,42.8428322 2682.01443,42.8428322 C2651.47557,42.8428322 2625.73375,54.8836282 2604.78896,78.9652202 C2583.84416,103.046812 2573.10151,132.168737 2572.561,166.330996 C2572.561,201.613328 2582.96583,230.945267 2603.7755,254.326813 C2624.58516,277.708359 2650.66481,289.539141 2682.01443,289.819159 C2716.33687,289.819159 2744.03804,275.958243 2765.11796,248.23641 L2790.6571,270.497882 C2765.52335,305.220177 2729.30912,322.581325 2682.01443,322.581325 C2640.12485,322.581325 2605.46459,307.600335 2578.03367,277.638354 C2550.60275,247.676373 2536.61704,210.573921 2536.07652,166.330996 C2536.07652,122.088071 2549.92711,85.1256275 2577.62829,55.4436652 C2605.32947,25.761703 2640.12485,10.6407034 2682.01443,10.0806664 L2682.01443,10.0806664 Z M2851.05917,17.6411662 C2857.27505,17.6411662 2862.68016,19.9513189 2867.2745,24.5716244 C2871.86884,29.1919298 2874.16601,34.8623047 2874.16601,41.5827489 C2874.16601,48.5832117 2872.00397,54.3235912 2867.67988,58.8038874 C2863.35579,63.2841836 2857.81556,65.5243317 2851.05917,65.5243317 C2844.30279,65.5243317 2838.76255,63.2841836 2834.43847,58.8038874 C2830.11438,54.3235912 2827.95234,48.5832117 2827.95234,41.5827489 C2827.95234,34.8623047 2830.24951,29.1919298 2834.84385,24.5716244 C2839.43819,19.9513189 2844.8433,17.6411662 2851.05917,17.6411662 L2851.05917,17.6411662 Z M2866.86911,118.44783 L2866.86911,315.020825 L2835.24923,315.020825 L2835.24923,118.44783 L2866.86911,118.44783 L2866.86911,118.44783 Z M2977.53869,62.5841373 L2977.53869,118.44783 L3033.48156,118.44783 L3033.48156,146.169663 L2977.53869,146.169663 L2977.53869,251.176605 C2977.53869,266.857641 2979.97099,277.218326 2984.83559,282.258659 C2989.70019,287.298993 2996.72683,289.819159 3005.91551,289.819159 C3016.45547,289.819159 3025.77928,287.579011 3033.88694,283.098715 L3035.10309,312.920686 C3024.29288,317.681001 3011.99626,320.061158 2998.21323,320.061158 C2978.75484,320.061158 2965.17451,315.09083 2957.47223,305.150173 C2949.76995,295.209516 2945.91881,278.898437 2945.91881,256.216938 L2945.91881,146.169663 L2904.56974,146.169663 L2904.56974,118.44783 L2945.91881,118.44783 L2945.91881,62.5841373 L2977.53869,62.5841373 L2977.53869,62.5841373 Z M3091.04596,17.6411662 C3097.26183,17.6411662 3102.66694,19.9513189 3107.26128,24.5716244 C3111.85562,29.1919298 3114.15279,34.8623047 3114.15279,41.5827489 C3114.15279,48.5832117 3111.99075,54.3235912 3107.66666,58.8038874 C3103.34258,63.2841836 3097.80234,65.5243317 3091.04596,65.5243317 C3084.28957,65.5243317 3078.74934,63.2841836 3074.42525,58.8038874 C3070.10116,54.3235912 3067.93912,48.5832117 3067.93912,41.5827489 C3067.93912,34.8623047 3070.23629,29.1919298 3074.83063,24.5716244 C3079.42497,19.9513189 3084.83008,17.6411662 3091.04596,17.6411662 L3091.04596,17.6411662 Z M3106.8559,118.44783 L3106.8559,315.020825 L3075.23602,315.020825 L3075.23602,118.44783 L3106.8559,118.44783 L3106.8559,118.44783 Z M3304.68284,118.44783 L3304.68284,143.649496 L3193.20249,287.298993 L3307.52052,287.298993 L3307.52052,315.020825 L3151.85342,315.020825 L3151.85342,289.399131 L3263.33376,146.169663 L3156.71801,146.169663 L3156.71801,118.44783 L3304.68284,118.44783 L3304.68284,118.44783 Z M3436.02695,113.407497 C3464.13351,113.407497 3486.09176,122.578103 3501.9017,140.919316 C3517.71164,159.260528 3525.75174,185.232245 3526.022,218.834467 L3526.022,226.814994 L3372.78719,226.814994 C3374.40873,245.016197 3381.02998,259.997188 3392.65096,271.757965 C3404.27195,283.518743 3418.46035,289.539141 3435.21619,289.819159 C3460.89045,289.819159 3480.88935,279.878502 3495.21288,259.997188 L3519.13048,279.318465 C3509.13103,292.759354 3497.37493,302.910025 3483.86216,309.770478 C3470.34939,316.630932 3454.13406,320.061158 3435.21619,320.061158 C3406.29886,320.061158 3383.0569,310.330515 3365.4903,290.869229 C3347.9237,271.407942 3339.00527,246.696309 3338.73502,216.734328 C3338.73502,187.052366 3347.72101,162.550746 3365.69299,143.229469 C3383.66497,123.908191 3407.10963,113.967534 3436.02695,113.407497 L3436.02695,113.407497 Z M3491.96982,199.093162 C3491.15905,182.012032 3485.82151,168.501139 3475.95719,158.560482 C3466.09286,148.619825 3452.24228,143.649496 3434.40542,143.649496 C3418.1901,143.649496 3404.5422,148.409811 3393.46173,157.93044 C3382.38126,167.45107 3375.48975,181.171977 3372.78719,199.093162 L3491.96982,199.093162 L3491.96982,199.093162 Z M3668.31146,113.407497 C3692.09393,113.407497 3710.06591,120.547969 3722.22741,134.828913 C3734.3889,149.109857 3740.46964,168.151116 3740.46964,191.95269 L3740.46964,315.020825 L3708.84976,315.020825 L3708.84976,195.732939 C3708.84976,180.61194 3705.47157,168.221121 3698.71519,158.560482 C3691.9588,148.899843 3680.87833,143.929515 3665.47377,143.649496 C3646.01539,143.649496 3631.35403,150.299936 3621.48971,163.600815 C3611.62539,176.901695 3606.69323,195.312912 3606.69323,218.834467 L3606.69323,315.020825 L3575.07335,315.020825 L3575.07335,162.130718 C3575.07335,160.730626 3574.53284,146.169663 3573.45182,118.44783 L3603.45016,118.44783 C3603.99067,138.049126 3604.26093,148.829839 3604.26093,150.789968 L3605.0717,150.789968 C3610.20655,139.589228 3618.5169,130.558631 3630.00276,123.698177 C3641.48861,116.837724 3654.25818,113.407497 3668.31146,113.407497 L3668.31146,113.407497 Z" id="Shape"></path>
            </g>
            <g id="SvgjsG1010" transform="translate(0.246666, 0.712189)" sketch:type="MSShapeGroup">
                <g id="Group">
                    <path d="M147.070026,377.520248 C90.81256,377.289553 39.489993,409.593301 15.3675831,460.417164 C-8.75482678,511.241027 -1.33070991,571.427574 34.4191307,614.866089 C70.1689713,658.304604 127.803139,677.168346 182.318214,663.273662 L261.68741,800.62005 C221.478535,844.631888 212.303234,908.768213 238.559231,962.288472 C264.815228,1015.80873 321.151881,1047.80617 380.56702,1042.9444 C439.982159,1038.08264 490.367726,997.352442 507.573908,940.275802 L667.163118,940.275802 C684.611906,998.252311 736.21986,1039.30439 796.63544,1043.2659 C857.051019,1047.22741 913.577692,1013.26582 938.447679,958.064192 C963.317666,902.862565 951.304458,838.021705 908.309342,795.393595 L984.518356,663.273662 C1043.25185,678.351393 1105.16837,655.322992 1139.77462,605.52973 C1174.38087,555.736469 1174.38087,489.67617 1139.77462,439.882909 C1105.16837,390.089647 1043.25185,367.061246 984.518356,382.138977 L908.187797,249.897499 C951.031259,207.28142 962.954174,142.563239 938.110195,87.4772227 C913.266216,32.3912069 856.864558,-1.51236117 796.56152,2.39097974 C736.258483,6.29432066 684.698237,47.1861289 667.163118,105.015291 L507.573908,105.015291 C490.367726,47.9386514 439.982159,7.20845379 380.56702,2.34668984 C321.151881,-2.5150741 264.815228,29.4823621 238.559231,83.0026212 C212.303234,136.52288 221.478535,200.659205 261.68741,244.671043 L182.318214,382.017431 C170.798781,379.07289 158.959764,377.562394 147.070026,377.520248 L147.070026,377.520248 Z M368.768974,970.297535 C328.895113,970.297535 296.570961,937.973383 296.570961,898.099522 C296.570961,858.225661 328.895113,825.901509 368.768974,825.901509 C408.642836,825.901509 440.966987,858.225661 440.966987,898.099522 C440.966987,937.973383 408.642836,970.297535 368.768974,970.297535 L368.768974,970.297535 Z M806.332688,970.297535 C766.458826,970.297535 734.134675,937.973383 734.134675,898.099522 C734.134675,858.225661 766.458826,825.901509 806.332688,825.901509 C846.206549,825.901509 878.5307,858.225661 878.5307,898.099522 C878.530945,917.310971 870.874357,935.730294 857.255637,949.280579 C843.636916,962.830863 825.179255,970.394562 805.968051,970.297535 L806.332688,970.297535 Z M1019.76654,450.447534 C1049.01135,450.250595 1075.48621,467.715662 1086.81444,494.67802 C1098.14267,521.640379 1092.0863,552.773436 1071.47661,573.522852 C1050.86692,594.272268 1019.77549,600.538857 992.737211,589.393063 C965.698926,578.247269 948.055376,551.891017 948.054713,522.645547 C948.053813,482.960782 980.082679,450.714771 1019.76654,450.447534 L1019.76654,450.447534 Z M805.968051,74.9935587 C839.029865,75.0277557 867.843907,97.5148864 875.909848,129.57772 C883.975789,161.640553 869.232344,195.085297 840.12233,210.759855 C829.639753,216.450873 817.895804,219.418205 805.968051,219.389584 C766.09419,219.389583 733.77004,187.065432 733.77004,147.191571 C733.77004,107.317711 766.09419,74.9935595 805.968051,74.9935587 L805.968051,74.9935587 Z M368.404338,74.9935587 C408.278199,74.9935587 440.60235,107.31771 440.60235,147.191571 C440.60235,187.065433 408.278199,219.389584 368.404338,219.389584 C328.530476,219.389584 296.206325,187.065433 296.206325,147.191571 C296.20608,127.980123 303.862668,109.560799 317.481389,96.0105149 C331.100109,82.4602303 349.557771,74.8965312 368.768974,74.9935587 L368.404338,74.9935587 Z M322.703239,284.659505 C361.78445,297.882415 404.652393,293.786435 440.522464,273.402019 C476.392535,253.017603 501.850241,218.285156 510.490999,177.942577 L664.246026,177.942577 C672.540268,217.118843 696.743834,251.085522 731.06556,271.715438 C765.387285,292.345353 806.739262,297.782443 845.22724,286.725778 L920.585435,417.144074 C891.325236,444.453165 874.712627,482.682006 874.712627,522.706319 C874.712627,562.730633 891.325236,600.959474 920.585435,628.268565 L845.22724,758.565316 C806.638768,747.557074 765.210564,753.088859 730.862311,773.836126 C696.514058,794.583393 672.338566,828.678001 664.124481,867.956244 L510.490999,867.956244 C501.850241,827.613665 476.392535,792.881218 440.522464,772.496802 C404.652393,752.112386 361.78445,748.016406 322.703239,761.239316 L246.251134,628.268565 C275.511334,600.959474 292.123942,562.730633 292.123942,522.706319 C292.123942,482.682006 275.511334,444.453165 246.251134,417.144074 L322.703239,284.659505 Z M218.781857,522.645547 C218.781857,562.519408 186.457705,594.843559 146.583844,594.843559 C106.709983,594.843559 74.3858313,562.519408 74.3858313,522.645547 C74.3858313,482.771685 106.709983,450.447534 146.583844,450.447534 C165.731948,450.447534 184.095795,458.054089 197.635548,471.593842 C211.175302,485.133596 218.781857,503.497443 218.781857,522.645547 L218.781857,522.645547 Z" id="Shape"></path>
                </g>
            </g>
        </g>
    </g>
</svg>