
        <svg width="3179.1043327714256" height="1235.8198961228368" xmlns="http://www.w3.org/2000/svg" xmlns:xlink="http://www.w3.org/1999/xlink" version="1.1">
            <rect fill="#ffffff" width="3179.1043327714256" height="1235.8198961228368"/>
            <g transform="scale(8.955216638571281) translate(10, 10)">
                <defs id="SvgjsDefs1002"/><g id="main_text" rel="mainfill" name="main_text" xmlns:name="mainText_mainfill" fill="#1b6394" transform="translate(150.482265541238, 27.193500518798828)"><path d="M10.908 7.263000000000002 c5.481 0 10.017 4.482 10.017 10.017 c0 5.481 -4.536 9.963 -10.017 9.963 c-5.508 0 -9.99 -4.482 -9.99 -9.963 c0 -5.535 4.482 -10.017 9.99 -10.017 z M10.908 22.599 c2.943 0 5.292 -2.403 5.292 -5.319 c0 -2.943 -2.349 -5.4 -5.292 -5.4 s-5.319 2.457 -5.319 5.4 c0 2.916 2.376 5.319 5.319 5.319 z M30.645 27.162 c-0.648 0 -1.35 -0.081 -1.944 -0.216 c-1.944 -0.405 -3.726 -1.296 -6.021 -3.267 l3.078 -3.537 c1.701 1.485 2.7 2.052 3.888 2.268 c0.351 0.081 0.702 0.135 1.026 0.135 c0.54 0 1.026 -0.108 1.404 -0.297 c0.324 -0.162 0.891 -0.513 0.891 -1.242 c0 -0.756 -1.404 -1.215 -2.619 -1.458 c-0.54 -0.108 -3.186 -0.675 -4.266 -1.323 c-1.836 -1.08 -2.781 -2.727 -2.781 -4.779 c0 -1.134 0.378 -2.214 0.999 -3.132 c0.621 -0.864 1.485 -1.539 2.484 -1.998 l-0.027 0.027 c1.026 -0.486 2.187 -0.729 3.294 -0.729 c0.459 0 0.891 0.027 1.431 0.108 c1.728 0.297 3.321 0.999 5.535 2.835 l-2.97 3.564 c-1.998 -1.647 -3.024 -1.89 -4.05 -1.89 c-0.513 0 -0.918 0.108 -1.242 0.27 c-0.513 0.216 -0.783 0.594 -0.783 0.945 c0 0.729 0.972 1.08 2.538 1.404 c0.162 0.054 0.351 0.054 0.54 0.108 c1.053 0.243 2.619 0.567 3.645 1.161 l-0.027 0 c1.944 1.08 2.97 2.781 2.97 4.887 c0 1.242 -0.324 2.403 -1.026 3.375 c-0.621 0.891 -1.539 1.539 -2.565 2.052 c-1.08 0.567 -2.187 0.729 -3.402 0.729 z M49.707 22.626 c1.674 0 3.159 -0.702 4.671 -2.7 l3.699 2.727 c-2.403 3.213 -5.238 4.617 -8.37 4.617 c-5.508 0 -10.017 -4.509 -10.017 -10.017 s4.509 -9.99 10.017 -9.99 c3.186 0 6.075 1.485 8.478 4.698 l-3.753 2.754 c-1.512 -2.025 -3.051 -2.835 -4.725 -2.835 c-2.997 0 -5.373 2.403 -5.373 5.373 c0 2.997 2.376 5.373 5.373 5.373 z"/></g><g id="slogan_text" rel="mainfill" name="slogan_text" xmlns:name="sloganText_mainfill" fill="#1b6394" transform="translate(150.46026475159567, 54.98350143432617)"><path d="M8.34 9.48 q3.2 0 5.28 2.1 t2.12 5.34 q-0.02 3.3 -2.14 5.36 t-5.26 2.08 q-3.2 0 -5.28 -2.11 t-2.12 -5.33 q0 -3.2 2.08 -5.3 t5.32 -2.14 z M2.74 16.92 q0 2.54 1.6 4.19 t4 1.69 q2.4 0 3.98 -1.68 t1.62 -4.2 q0 -2.46 -1.56 -4.15 t-4.06 -1.73 q-2.44 0.02 -3.99 1.71 t-1.59 4.17 z M23.04 14.4 q2.22 0 3.56 1.4 t1.36 3.52 q0 2.1 -1.36 3.49 t-3.32 1.43 q-1.2 0 -2.17 -0.52 t-1.43 -1.38 l-0.04 0 l0 6.22 l-1.56 0 l0 -13.92 l1.56 0 l0 1.36 l0.04 0 q1.38 -1.6 3.36 -1.6 z M19.64 19.32 q0 1.54 0.93 2.49 t2.39 0.99 q1.46 0 2.38 -0.97 t0.94 -2.51 q0 -1.52 -0.93 -2.5 t-2.41 -0.98 q-1.44 0 -2.36 0.97 t-0.94 2.51 z M34.64 14.4 q2.08 0 3.25 1.31 t1.19 3.71 l0 0.38 l-7.56 0 q0.12 1.3 0.98 2.14 t2.1 0.86 q1.9 0 2.96 -1.42 l1.18 0.92 q-0.74 0.96 -1.74 1.45 t-2.4 0.49 q-2.14 0 -3.44 -1.39 t-1.32 -3.53 q0 -2.12 1.33 -3.5 t3.47 -1.42 z M37.4 18.48 q-0.06 -1.22 -0.79 -1.93 t-2.05 -0.71 q-1.2 0 -2.02 0.68 t-1.02 1.96 l5.88 0 z M46.099999999999994 14.4 q1.76 0 2.66 1.02 t0.9 2.72 l0 5.86 l-1.56 0 l0 -5.68 q0 -1.08 -0.5 -1.77 t-1.64 -0.71 q-1.44 0 -2.17 0.95 t-0.73 2.63 l0 4.58 l-1.56 0 l0 -7.28 q0 -0.1 -0.08 -2.08 l1.48 0 q0.04 1.4 0.04 1.54 l0.04 0 q0.38 -0.8 1.23 -1.29 t1.89 -0.49 z  M62.6 9.48 q2.58 0 3.96 1.66 l-1.38 1.2 q-0.8 -1.26 -2.58 -1.3 q-1.34 0 -2.18 0.64 t-0.84 1.74 q0 0.96 0.64 1.52 t2.4 1.1 q2.28 0.66 3.23 1.61 t0.95 2.57 q0 1.88 -1.4 3 t-3.58 1.14 q-1.46 0 -2.6 -0.52 t-1.76 -1.44 l1.44 -1.18 q0.46 0.76 1.28 1.17 t1.74 0.41 q1.26 0 2.17 -0.71 t0.91 -1.75 q0 -0.94 -0.53 -1.48 t-1.75 -0.92 l-1.62 -0.54 q-1.82 -0.62 -2.57 -1.55 t-0.75 -2.29 q0 -1.8 1.34 -2.93 t3.48 -1.15 z M73.76 14.4 q2.18 0 3.56 1.35 t1.44 3.57 q0 2.14 -1.4 3.51 t-3.6 1.41 q-2.2 0 -3.58 -1.39 t-1.42 -3.53 q0 -2.16 1.4 -3.53 t3.6 -1.39 z M70.44000000000001 19.32 q0 1.54 0.93 2.49 t2.39 0.99 q1.46 0 2.38 -0.97 t0.94 -2.51 q0 -1.52 -0.93 -2.5 t-2.41 -0.98 q-1.44 0 -2.36 0.97 t-0.94 2.51 z M82.74000000000001 14.64 l0 5.68 q0 1.08 0.51 1.77 t1.63 0.71 q1.44 0 2.17 -0.96 t0.73 -2.56 l0 -4.64 l1.56 0 l0 7.28 q0.02 0.56 0.08 2.08 l-1.48 0 q-0.02 -0.96 -0.04 -1.54 l-0.04 0 q-0.36 0.78 -1.21 1.28 t-1.93 0.5 q-1.72 -0.02 -2.63 -1.03 t-0.91 -2.71 l0 -5.86 l1.56 0 z M96.9 14.4 q0.36 0 0.64 0.1 l-0.1 1.58 q-0.44 -0.12 -0.84 -0.12 q-1.36 0 -2.05 0.89 t-0.69 2.51 l0 4.64 l-1.56 0 l0 -7.28 q0 -0.28 -0.08 -2.08 l1.48 0 q0.04 1.4 0.04 1.54 l0.04 0 q0.38 -0.8 1.23 -1.29 t1.89 -0.49 z M103.66000000000001 14.4 q2.22 0 3.58 1.48 l-1.24 1.1 q-0.94 -1.14 -2.36 -1.14 q-1.46 0 -2.31 0.95 t-0.85 2.53 q0 1.5 0.91 2.48 t2.25 1 q1.54 0 2.38 -1.16 l1.16 1.1 q-1.3 1.48 -3.54 1.5 q-2.14 -0.02 -3.47 -1.36 t-1.37 -3.56 q0.02 -2.24 1.4 -3.58 t3.46 -1.34 z M113.24000000000001 14.4 q2.08 0 3.25 1.31 t1.19 3.71 l0 0.38 l-7.56 0 q0.12 1.3 0.98 2.14 t2.1 0.86 q1.9 0 2.96 -1.42 l1.18 0.92 q-0.74 0.96 -1.74 1.45 t-2.4 0.49 q-2.14 0 -3.44 -1.39 t-1.32 -3.53 q0 -2.12 1.33 -3.5 t3.47 -1.42 z M116.00000000000001 18.48 q-0.06 -1.22 -0.79 -1.93 t-2.05 -0.71 q-1.2 0 -2.02 0.68 t-1.02 1.96 l5.88 0 z  M132.32000000000002 9.48 q1.66 0 2.94 0.59 t2.06 1.63 l-1.46 1.06 q-0.64 -0.86 -1.58 -1.29 t-1.96 -0.43 q-2.26 0 -3.81 1.72 t-1.59 4.16 q0 2.52 1.54 4.19 t3.86 1.69 q2.54 0 4.1 -1.98 l1.26 1.06 q-1.86 2.48 -5.36 2.48 q-3.1 0 -5.13 -2.14 t-2.07 -5.3 q0 -3.16 2.05 -5.28 t5.15 -2.16 z M140.66000000000003 9.84 q0.46 0 0.8 0.33 t0.34 0.81 q0 0.5 -0.32 0.82 t-0.82 0.32 t-0.82 -0.32 t-0.32 -0.82 q0 -0.48 0.34 -0.81 t0.8 -0.33 z M141.44000000000003 14.64 l0 9.36 l-1.56 0 l0 -9.36 l1.56 0 z M146.90000000000003 11.98 l0 2.66 l2.76 0 l0 1.32 l-2.76 0 l0 5 q0 1.12 0.36 1.48 t1.04 0.36 q0.78 0 1.38 -0.32 l0.06 1.42 q-0.8 0.34 -1.82 0.34 q-1.44 0 -2.01 -0.71 t-0.57 -2.33 l0 -5.24 l-2.04 0 l0 -1.32 l2.04 0 l0 -2.66 l1.56 0 z M152.50000000000003 9.84 q0.46 0 0.8 0.33 t0.34 0.81 q0 0.5 -0.32 0.82 t-0.82 0.32 t-0.82 -0.32 t-0.32 -0.82 q0 -0.48 0.34 -0.81 t0.8 -0.33 z M153.28000000000003 14.64 l0 9.36 l-1.56 0 l0 -9.36 l1.56 0 z M163.04000000000002 14.64 l0 1.2 l-5.5 6.84 l5.64 0 l0 1.32 l-7.68 0 l0 -1.22 l5.5 -6.82 l-5.26 0 l0 -1.32 l7.3 0 z M169.52000000000004 14.4 q2.08 0 3.25 1.31 t1.19 3.71 l0 0.38 l-7.56 0 q0.12 1.3 0.98 2.14 t2.1 0.86 q1.9 0 2.96 -1.42 l1.18 0.92 q-0.74 0.96 -1.74 1.45 t-2.4 0.49 q-2.14 0 -3.44 -1.39 t-1.32 -3.53 q0 -2.12 1.33 -3.5 t3.47 -1.42 z M172.28000000000003 18.48 q-0.06 -1.22 -0.79 -1.93 t-2.05 -0.71 q-1.2 0 -2.02 0.68 t-1.02 1.96 l5.88 0 z M180.98000000000005 14.4 q1.76 0 2.66 1.02 t0.9 2.72 l0 5.86 l-1.56 0 l0 -5.68 q0 -1.08 -0.5 -1.77 t-1.64 -0.71 q-1.44 0 -2.17 0.95 t-0.73 2.63 l0 4.58 l-1.56 0 l0 -7.28 q0 -0.1 -0.08 -2.08 l1.48 0 q0.04 1.4 0.04 1.54 l0.04 0 q0.38 -0.8 1.23 -1.29 t1.89 -0.49 z"/></g><g id="SvgjsG1010" rel="mainfill" name="symbol" xmlns:name="symbol_mainfill" fill="#1b6394" transform="translate(-0.01697289748308384, -8.862950819326866) scale(1.3572589128359)"><title xmlns="http://www.w3.org/2000/svg">11</title><g xmlns="http://www.w3.org/2000/svg" data-name="Group"><path data-name="Compound Path" d="M14.1,38.06A11.94,11.94,0,1,0,17,61.57l6.53,11.3A11.93,11.93,0,1,0,43.76,84.36H56.89A11.94,11.94,0,1,0,76.73,72.44L83,61.57a11.94,11.94,0,1,0,0-23.13L76.72,27.56A11.93,11.93,0,1,0,56.89,15.64H43.76A11.93,11.93,0,1,0,23.53,27.13L17,38.43A11.88,11.88,0,0,0,14.1,38.06ZM32.34,86.83a5.94,5.94,0,1,1,5.94-5.94A5.94,5.94,0,0,1,32.34,86.83Zm36,0a5.94,5.94,0,1,1,5.94-5.94A5.94,5.94,0,0,1,68.31,86.83ZM85.9,44.06A5.94,5.94,0,1,1,80,50,5.94,5.94,0,0,1,85.9,44.06ZM68.31,13.17a5.94,5.94,0,0,1,2.81,11.17,5.86,5.86,0,0,1-2.81.71,5.94,5.94,0,0,1,0-11.88Zm-36,0a5.94,5.94,0,1,1-5.94,5.94A5.94,5.94,0,0,1,32.34,13.17ZM28.55,30.42A11.9,11.9,0,0,0,44,21.64H56.65a11.87,11.87,0,0,0,14.89,8.95l6.2,10.73a11.88,11.88,0,0,0,0,17.37L71.54,69.41a11.89,11.89,0,0,0-14.9,9H44a11.9,11.9,0,0,0-15.45-8.78L22.26,58.69a11.88,11.88,0,0,0,0-17.37ZM20,50a5.94,5.94,0,1,1-5.94-5.94A5.94,5.94,0,0,1,20,50Z"/></g></g>
            </g>
        </svg>
    